<svg width="14" height="14" viewBox="0 0 14 14" fill="none" xmlns="http://www.w3.org/2000/svg">
<g clip-path="url(#clip0_1_3125)">
<path d="M4.10089 0.0490021C3.35609 0.0841421 2.84747 0.203002 2.40283 0.377722C1.94265 0.557062 1.55261 0.797722 1.16453 1.1872C0.776451 1.57668 0.537471 1.967 0.359391 2.42788C0.187051 2.8735 0.0702913 3.38254 0.0373913 4.12776C0.00449135 4.87298 -0.00278865 5.11252 0.00085135 7.01344C0.00449135 8.91436 0.0128914 9.15264 0.0490113 9.8994C0.0845713 10.6441 0.203011 11.1525 0.377731 11.5973C0.557351 12.0575 0.797731 12.4474 1.18735 12.8356C1.57697 13.2238 1.96701 13.4623 2.42901 13.6406C2.87421 13.8127 3.38339 13.93 4.12847 13.9626C4.87355 13.9952 5.11337 14.0028 7.01373 13.9992C8.91409 13.9955 9.15335 13.9871 9.89997 13.9517C10.6466 13.9163 11.1524 13.797 11.5973 13.6231C12.0575 13.4431 12.4477 13.2031 12.8356 12.8134C13.2236 12.4236 13.4624 12.033 13.6403 11.5718C13.8128 11.1266 13.93 10.6175 13.9623 9.87294C13.995 9.12576 14.0027 8.8872 13.999 6.98656C13.9954 5.08592 13.9868 4.84764 13.9514 4.10116C13.916 3.35468 13.7974 2.84774 13.6228 2.40268C13.4429 1.9425 13.2028 1.55288 12.8134 1.16438C12.4239 0.775882 12.033 0.537182 11.572 0.359662C11.1265 0.187322 10.6176 0.0698621 9.87253 0.0376621C9.12745 0.0054621 8.88763 -0.0027979 6.98657 0.000842104C5.08551 0.0044821 4.84751 0.0126021 4.10089 0.0490021ZM4.18265 12.7033C3.50015 12.6736 3.12957 12.5602 2.88261 12.4653C2.55557 12.3393 2.32261 12.187 2.07649 11.9433C1.83037 11.6995 1.67917 11.4657 1.55149 11.1394C1.45559 10.8924 1.34009 10.5223 1.30817 9.83976C1.27345 9.1021 1.26617 8.88062 1.26211 7.01176C1.25805 5.1429 1.26519 4.9217 1.29753 4.18376C1.32665 3.50182 1.44075 3.13082 1.53553 2.884C1.66153 2.55654 1.81329 2.324 2.05759 2.07802C2.30189 1.83204 2.53499 1.68056 2.86161 1.55288C3.10829 1.45656 3.47845 1.34204 4.16067 1.30956C4.89889 1.27456 5.12009 1.26756 6.98867 1.2635C8.85725 1.25944 9.07901 1.26644 9.81751 1.29892C10.4994 1.3286 10.8706 1.44158 11.1171 1.53692C11.4443 1.66292 11.6771 1.81426 11.9231 2.05898C12.1691 2.3037 12.3207 2.53596 12.4484 2.86328C12.5448 3.10926 12.6594 3.47928 12.6916 4.16192C12.7267 4.90014 12.7347 5.12148 12.738 6.98992C12.7414 8.85836 12.7348 9.08026 12.7025 9.81792C12.6727 10.5004 12.5596 10.8711 12.4645 11.1184C12.3385 11.4453 12.1866 11.6784 11.9422 11.9242C11.6977 12.1701 11.4649 12.3215 11.1381 12.4492C10.8917 12.5454 10.5212 12.6602 9.83949 12.6927C9.10127 12.7274 8.88007 12.7347 7.01079 12.7387C5.14151 12.7428 4.92101 12.7352 4.18279 12.7033M9.88919 3.25878C9.88947 3.42493 9.93901 3.58726 10.0316 3.72525C10.1241 3.86324 10.2555 3.97069 10.4091 4.034C10.5627 4.09731 10.7316 4.11365 10.8945 4.08094C11.0574 4.04824 11.207 3.96796 11.3242 3.85026C11.4415 3.73256 11.5212 3.58273 11.5534 3.41971C11.5855 3.2567 11.5685 3.08782 11.5046 2.93444C11.4408 2.78106 11.3328 2.65007 11.1945 2.55803C11.0562 2.466 10.8937 2.41705 10.7275 2.41738C10.5048 2.41783 10.2913 2.50672 10.1341 2.6645C9.97692 2.82229 9.88882 3.03605 9.88919 3.25878ZM3.40579 7.007C3.40971 8.9922 5.02195 10.5979 7.00673 10.5941C8.99151 10.5903 10.5983 8.9782 10.5945 6.993C10.5907 5.0078 8.97807 3.40172 6.99301 3.40564C5.00795 3.40956 3.40201 5.02208 3.40579 7.007ZM4.66663 7.00448C4.66572 6.54298 4.80168 6.09158 5.05731 5.70735C5.31295 5.32312 5.67678 5.02333 6.1028 4.84588C6.52881 4.66842 6.99789 4.62129 7.45069 4.71042C7.9035 4.79956 8.31971 5.02097 8.64668 5.34665C8.97366 5.67234 9.19671 6.08766 9.28764 6.54011C9.37857 6.99257 9.33329 7.46182 9.15753 7.88854C8.98177 8.31526 8.68342 8.68027 8.3002 8.93743C7.91699 9.19458 7.46613 9.33233 7.00463 9.33324C6.6982 9.33389 6.39464 9.27416 6.11129 9.15747C5.82794 9.04078 5.57036 8.86941 5.35325 8.65316C5.13613 8.43691 4.96375 8.18 4.84594 7.89712C4.72813 7.61424 4.6672 7.31092 4.66663 7.00448Z" fill="white"/>
</g>
<defs>
<clipPath id="clip0_1_3125">
<rect width="14" height="14" fill="white"/>
</clipPath>
</defs>
</svg>
