<svg width="12" height="13" viewBox="0 0 12 13" fill="none" xmlns="http://www.w3.org/2000/svg">
<g clip-path="url(#clip0_1_3121)">
<path d="M9.64362 2.60574C8.94319 2.14922 8.43808 1.41847 8.28026 0.56706C8.24634 0.383149 8.22743 0.193694 8.22743 0H5.99245L5.98886 8.95688C5.95136 9.95992 5.12572 10.765 4.11388 10.765C3.79921 10.765 3.50312 10.6864 3.24226 10.5492C2.64422 10.2345 2.23498 9.60775 2.23498 8.88645C2.23498 7.85048 3.07791 7.00755 4.11355 7.00755C4.30692 7.00755 4.49246 7.03951 4.6679 7.09429V4.81268C4.48627 4.78789 4.3017 4.77257 4.11355 4.77257C1.84531 4.77257 0 6.61788 0 8.88645C0 10.2782 0.695212 11.5098 1.75629 12.2546C2.42444 12.7238 3.23736 13 4.11388 13C6.38212 13 8.22743 11.1547 8.22743 8.88645V4.34442C9.10395 4.97344 10.1781 5.34419 11.337 5.34419V3.10921C10.7128 3.10921 10.1314 2.92367 9.64362 2.60574Z" fill="white"/>
</g>
<defs>
<clipPath id="clip0_1_3121">
<rect width="11.337" height="13" fill="white"/>
</clipPath>
</defs>
</svg>
